<?xml version="1.0" encoding="UTF-8" standalone="no"?>
<svg
   xmlns:dc="http://purl.org/dc/elements/1.1/"
   xmlns:cc="http://creativecommons.org/ns#"
   xmlns:rdf="http://www.w3.org/1999/02/22-rdf-syntax-ns#"
   xmlns:svg="http://www.w3.org/2000/svg"
   xmlns="http://www.w3.org/2000/svg"
   xmlns:sodipodi="http://sodipodi.sourceforge.net/DTD/sodipodi-0.dtd"
   xmlns:inkscape="http://www.inkscape.org/namespaces/inkscape"
   version="1.1"
   width="907.78003"
   height="415.07999"
   id="svg2855"
   sodipodi:docname="fedora_logo.svg"
   inkscape:version="1.0.2 (e86c870879, 2021-01-15)">
  <metadata
     id="metadata20">
    <rdf:RDF>
      <cc:Work
         rdf:about="">
        <dc:format>image/svg+xml</dc:format>
        <dc:type
           rdf:resource="http://purl.org/dc/dcmitype/StillImage" />
      </cc:Work>
    </rdf:RDF>
  </metadata>
  <sodipodi:namedview
     pagecolor="#ffffff"
     bordercolor="#666666"
     borderopacity="1"
     objecttolerance="10"
     gridtolerance="10"
     guidetolerance="10"
     inkscape:pageopacity="0"
     inkscape:pageshadow="2"
     inkscape:window-width="2560"
     inkscape:window-height="1403"
     id="namedview18"
     showgrid="false"
     inkscape:zoom="1.7471193"
     inkscape:cx="453.89001"
     inkscape:cy="207.53999"
     inkscape:window-x="0"
     inkscape:window-y="25"
     inkscape:window-maximized="1"
     inkscape:current-layer="svg2855" />
  <defs
     id="defs2857" />
  <path
     id="path1616"
     style="opacity:1;fill:#51a2da;fill-opacity:1;fill-rule:nonzero;stroke:none;stroke-width:1.33335"
     d="m 196.07741,103.89381 c -57.21983,0 -103.586462,46.37214 -103.623771,103.57914 h -0.01831 v 80.21109 h 0.01831 c 0.02746,12.98741 10.552761,23.50213 23.546771,23.50213 h 0.11181 0.0184 79.98755 c 57.22698,-0.0366 103.57969,-46.40238 103.57969,-103.62386 8e-5,-57.24568 -46.37792,-103.6685 -103.62367,-103.6685 z m 181.24101,41.83865 c -21.90847,0 -35.96355,16.64654 -36.09167,32.22312 v 90.29625 c -0.0275,11.13336 16.92975,11.13336 16.90537,0 V 207.9872 h 17.37498 c 4.06533,0 7.53584,-2.94551 7.53584,-7.67001 0,-4.72441 -3.71824,-7.58057 -7.53584,-7.58057 h -17.37498 v -13.8866 c 0,-8.88862 6.95466,-16.29405 20.95281,-16.12275 4.86903,0.0642 6.58504,1.24161 8.36328,2.32559 9.708,6.43015 19.0459,-8.45814 8.87762,-14.15487 -6.23621,-3.81604 -12.05539,-5.16553 -19.00741,-5.16553 z m -160.24345,0.82762 c 17.40431,0 33.83318,13.32808 33.83318,31.70886 0,1.70464 0.01,3.41102 -0.26854,5.34443 -0.4821,4.89038 -4.95079,8.40416 -9.8168,7.71474 -4.86599,-0.69747 -8.16778,-5.31867 -7.26756,-10.15224 0.0825,-0.55174 0.11181,-1.41803 0.11181,-2.90693 0,-10.42151 -8.5277,-14.44568 -16.59237,-14.44568 -8.05981,0 -15.32078,6.77832 -15.34003,14.44568 0.1393,8.86901 0,17.66956 0,26.52089 l 14.95985,-0.11183 c 11.67844,-0.24195 11.81087,17.35254 0.13474,17.26318 l -15.09404,0.11183 c -0.0366,7.13365 0.055,5.84374 0.0183,9.4366 0,0 0.12648,8.7254 -0.13382,15.34003 -1.80536,19.4269 -18.34632,34.95125 -38.21608,34.95125 -21.06023,0 -38.41726,-17.21569 -38.41726,-38.3278 0.63239,-21.71895 17.94928,-38.799 39.75896,-38.59617 l 12.16473,-0.0916 v 17.24081 l -12.16473,0.11181 h -0.0642 c -11.98665,0.3547 -22.25473,8.49636 -22.45106,21.33301 0,11.69629 9.44771,21.06463 21.17646,21.06463 11.7094,0 21.08699,-8.52202 21.08699,-21.04227 l -0.0183,-65.27415 c 0.006,-1.21174 0.0458,-2.17427 0.17872,-3.51083 1.9773,-15.96712 16.26104,-28.13095 32.42438,-28.13095 z m 345.42011,0.78271 c -5.27286,-0.28228 -9.15103,4.93997 -8.34091,9.90615 v 38.46208 c -16.71959,-14.01813 -43.93538,-13.04029 -59.37009,2.48213 -15.60885,13.90834 -18.57509,39.11602 -7.22284,56.48542 8.33889,13.11297 23.5914,22.47801 39.31179,21.73553 9.88497,-0.0916 19.68031,-4.36284 27.28114,-10.6665 -0.77996,4.97654 3.0655,10.2481 8.38563,9.92861 5.22226,0.2328 9.27669,-4.92045 8.4751,-9.90625 -0.0916,-36.98584 0.0916,-73.97388 -0.0916,-110.95842 -0.27038,-4.15616 -4.23737,-7.58469 -8.38519,-7.46875 h -0.0183 z m 65.31831,37.657 a 46.178308,45.805352 0 0 0 -46.17672,45.79656 46.178308,45.805352 0 0 0 46.17672,45.81902 46.178308,45.805352 0 0 0 46.17674,-45.81902 46.178308,45.805352 0 0 0 -46.17674,-45.79656 z m 150.82921,0.40236 c -11.5272,0 -19.83483,3.4233 -25.8948,7.75947 -9.1865,6.57697 0.69747,20.3294 9.88388,13.75243 4.18108,-2.99171 7.28673,-4.58408 16.01092,-4.58408 10.85916,0.21813 19.58877,4.28914 19.58877,12.41064 -5.82195,3.68396 -31.13082,6.73856 -44.72323,14.46796 -13.5924,7.72941 -12.88035,17.48516 -12.88035,23.81521 0,13.88515 14.64916,23.25604 27.32596,23.25604 12.6768,0 18.05432,-2.65973 30.45652,-11.15847 v 2.41513 c -0.40052,11.66394 17.32852,11.66394 16.92773,0 v -49.84412 c 0.0551,-20.67318 -14.77537,-31.97538 -36.6954,-32.29021 z m -84.07973,0.17872 c -7.33576,0 -8.55813,6.05565 -8.51982,8.49746 v 73.52506 c -0.20071,4.75252 3.72979,8.69862 8.65399,8.69862 4.92412,0 8.8549,-3.9461 8.65392,-8.69862 0,0 0.13014,-27.35484 0,-44.8575 -0.13016,-17.50257 14.11784,-21.28827 19.07449,-21.28827 3.68076,0 6.63178,2.05503 9.54844,1.9455 4.32891,-0.16313 7.87128,-3.07145 7.87128,-8.162 -0.13015,-8.2235 -10.20475,-9.3873 -17.64335,-9.23535 -7.43859,0.15214 -13.72457,2.43154 -19.16386,5.67988 0,0 -1.13923,-6.10478 -8.47509,-6.10478 z m -259.73032,0.17872 c -5.61535,-0.43167 -11.81912,0.46835 -18.6496,3.1083 -16.53096,6.3889 -27.74948,22.08593 -27.79548,41.45847 -0.0459,20.29265 14.15386,46.47534 43.60514,46.66872 19.80919,0.13015 29.71515,-7.26903 35.06306,-12.29891 3.54732,-3.14349 3.80954,-8.60615 0.55909,-12.05293 -3.25705,-3.45327 -8.72265,-3.53796 -12.07528,-0.17872 -3.99174,3.75005 -9.87215,9.31949 -26.54326,7.46875 -7.15309,-0.79187 -14.83192,-6.603 -17.39735,-11.04667 l 54.6071,-23.23368 c 4.1766,-1.8556 6.10606,-6.70006 4.33808,-10.91249 -7.31311,-14.39043 -18.86534,-27.68496 -35.71141,-28.98066 z m 192.98084,16.39111 a 28.88491,28.651626 0 0 1 28.89121,28.6452 28.88491,28.651626 0 0 1 -28.89121,28.66765 28.88491,28.651626 0 0 1 -28.89119,-28.66765 28.88491,28.651626 0 0 1 28.89119,-28.6452 z m -101.9467,0.44726 c 15.09467,-0.3941 28.57132,13.1972 28.28748,28.1533 0.31711,14.96994 -13.20555,28.53769 -28.28748,28.15321 -14.34012,0.38036 -27.48764,-11.76568 -28.22031,-26.00653 -1.52711,-14.67995 10.52921,-29.00072 25.291,-30.1658 0.97381,-0.0953 1.95008,-0.13474 2.92931,-0.13474 z m -95.30522,0.44726 c 8.2125,0.008 15.96106,4.24332 19.90184,11.06894 l -45.4612,19.40996 c -3.24542,-12.11205 10.07378,-26.35143 17.33025,-29.00303 2.71997,-0.99396 5.49163,-1.47843 8.22911,-1.47587 z m 368.25134,28.35448 c -0.004,5.48155 0.0825,7.06529 -0.0642,12.54492 -0.0366,6.58072 -4.1688,9.62451 -8.49745,12.14236 -4.32864,2.51788 -13.1303,4.72295 -18.22469,4.96427 -5.8763,0.1943 -13.65611,-1.12587 -14.06552,-8.09492 0.004,-4.20657 2.04321,-6.82196 5.38915,-9.72724 7.92316,-5.9442 18.64419,-7.93389 35.46561,-11.82939 z" />
</svg>
