<svg width="879" height="622" class="scatterD3" id="scatterD3-svg-scatterD3-AEZQHPHI" xmlns="http://www.w3.org/2000/svg" version="1.1"><style>.scatterD3 {font: 11px Open Sans, Droid Sans, Helvetica, Verdana, sans-serif;}.scatterD3 .axis line, .axis path { stroke: #000; fill: none; shape-rendering: CrispEdges;} .scatterD3 .axis .tick line { stroke: #ddd;} .scatterD3 .axis text { fill: #000; }</style><g class="root" transform="translate(30,5)" width="689" height="597"><rect class="viewport" width="689" height="597" style="fill: rgb(255, 255, 255);"></rect><g class="x axis" transform="translate(0,597)" fill="none" font-size="10" font-family="sans-serif" text-anchor="middle" style="font-size: 160%;"><path class="domain" stroke="currentColor" d="M0,-597V0H689V-597"></path><g class="tick" opacity="1" transform="translate(57.416666666666714,0)"><line stroke="currentColor" y2="-597"></line><text fill="currentColor" y="3" dy="0.71em">4.0</text></g><g class="tick" opacity="1" transform="translate(125.76984126984131,0)"><line stroke="currentColor" y2="-597"></line><text fill="currentColor" y="3" dy="0.71em">4.5</text></g><g class="tick" opacity="1" transform="translate(194.12301587301587,0)"><line stroke="currentColor" y2="-597"></line><text fill="currentColor" y="3" dy="0.71em">5.0</text></g><g class="tick" opacity="1" transform="translate(262.4761904761905,0)"><line stroke="currentColor" y2="-597"></line><text fill="currentColor" y="3" dy="0.71em">5.5</text></g><g class="tick" opacity="1" transform="translate(330.82936507936506,0)"><line stroke="currentColor" y2="-597"></line><text fill="currentColor" y="3" dy="0.71em">6.0</text></g><g class="tick" opacity="1" transform="translate(399.18253968253964,0)"><line stroke="currentColor" y2="-597"></line><text fill="currentColor" y="3" dy="0.71em">6.5</text></g><g class="tick" opacity="1" transform="translate(467.5357142857142,0)"><line stroke="currentColor" y2="-597"></line><text fill="currentColor" y="3" dy="0.71em">7.0</text></g><g class="tick" opacity="1" transform="translate(535.8888888888888,0)"><line stroke="currentColor" y2="-597"></line><text fill="currentColor" y="3" dy="0.71em">7.5</text></g><g class="tick" opacity="1" transform="translate(604.2420634920634,0)"><line stroke="currentColor" y2="-597"></line><text fill="currentColor" y="3" dy="0.71em">8.0</text></g><g class="tick" opacity="1" transform="translate(672.595238095238,0)"><line stroke="currentColor" y2="-597"></line><text fill="currentColor" y="3" dy="0.71em">8.5</text></g></g><g class="y axis" fill="none" font-size="10" font-family="sans-serif" text-anchor="end" style="font-size: 160%;"><path class="domain" stroke="currentColor" d="M689,597H0V0H689"></path><g class="tick" opacity="1" transform="translate(0,511.7142857142858)"><line stroke="currentColor" x2="689"></line><text fill="currentColor" x="-3" dy="0.32em">2.0</text></g><g class="tick" opacity="1" transform="translate(0,422.8750000000001)"><line stroke="currentColor" x2="689"></line><text fill="currentColor" x="-3" dy="0.32em">2.5</text></g><g class="tick" opacity="1" transform="translate(0,334.03571428571433)"><line stroke="currentColor" x2="689"></line><text fill="currentColor" x="-3" dy="0.32em">3.0</text></g><g class="tick" opacity="1" transform="translate(0,245.19642857142864)"><line stroke="currentColor" x2="689"></line><text fill="currentColor" x="-3" dy="0.32em">3.5</text></g><g class="tick" opacity="1" transform="translate(0,156.35714285714297)"><line stroke="currentColor" x2="689"></line><text fill="currentColor" x="-3" dy="0.32em">4.0</text></g><g class="tick" opacity="1" transform="translate(0,67.51785714285724)"><line stroke="currentColor" x2="689"></line><text fill="currentColor" x="-3" dy="0.32em">4.5</text></g></g><text class="x-axis-label" transform="translate(684,591)" style="text-anchor: end; font-size: 160%;">Sepal Length</text><text class="y-axis-label" transform="translate(5,6) rotate(-90)" dy=".71em" style="text-anchor: end; font-size: 160%;">Sepal Width</text><svg class="chart-body" width="689" height="597"><path class="line" d="M0,867.0714285714286L689,867.0714285714286" style="stroke-width: 1px; stroke: rgb(0, 0, 0); stroke-dasharray: 5;"></path><path class="line" d="M-489.40873015873,0L-489.40873015873,597" style="stroke-width: 1px; stroke: rgb(0, 0, 0); stroke-dasharray: 5;"></path><path transform="translate(207.79365079365076,245.19642857142864)" d="M7.978845608028654,0A7.978845608028654,7.978845608028654,0,1,1,-7.978845608028654,0A7.978845608028654,7.978845608028654,0,1,1,7.978845608028654,0" class="dot symbol symbol-c color color-csetosa" style="fill: rgb(78, 121, 167); opacity: 0.7;"></path><path transform="translate(180.45238095238105,334.03571428571433)" d="M7.978845608028654,0A7.978845608028654,7.978845608028654,0,1,1,-7.978845608028654,0A7.978845608028654,7.978845608028654,0,1,1,7.978845608028654,0" class="dot symbol symbol-c color color-csetosa" style="fill: rgb(78, 121, 167); opacity: 0.7;"></path><path transform="translate(153.11111111111117,298.5)" d="M7.978845608028654,0A7.978845608028654,7.978845608028654,0,1,1,-7.978845608028654,0A7.978845608028654,7.978845608028654,0,1,1,7.978845608028654,0" class="dot symbol symbol-c color color-csetosa" style="fill: rgb(78, 121, 167); opacity: 0.7;"></path><path transform="translate(139.44047619047618,316.2678571428572)" d="M7.978845608028654,0A7.978845608028654,7.978845608028654,0,1,1,-7.978845608028654,0A7.978845608028654,7.978845608028654,0,1,1,7.978845608028654,0" class="dot symbol symbol-c color color-csetosa" style="fill: rgb(78, 121, 167); opacity: 0.7;"></path><path transform="translate(194.12301587301587,227.42857142857147)" d="M7.978845608028654,0A7.978845608028654,7.978845608028654,0,1,1,-7.978845608028654,0A7.978845608028654,7.978845608028654,0,1,1,7.978845608028654,0" class="dot symbol symbol-c color color-csetosa" style="fill: rgb(78, 121, 167); opacity: 0.7;"></path><path transform="translate(248.80555555555563,174.1250000000001)" d="M7.978845608028654,0A7.978845608028654,7.978845608028654,0,1,1,-7.978845608028654,0A7.978845608028654,7.978845608028654,0,1,1,7.978845608028654,0" class="dot symbol symbol-c color color-csetosa" style="fill: rgb(78, 121, 167); opacity: 0.7;"></path><path transform="translate(139.44047619047618,262.96428571428584)" d="M7.978845608028654,0A7.978845608028654,7.978845608028654,0,1,1,-7.978845608028654,0A7.978845608028654,7.978845608028654,0,1,1,7.978845608028654,0" class="dot symbol symbol-c color color-csetosa" style="fill: rgb(78, 121, 167); opacity: 0.7;"></path><path transform="translate(194.12301587301587,262.96428571428584)" d="M7.978845608028654,0A7.978845608028654,7.978845608028654,0,1,1,-7.978845608028654,0A7.978845608028654,7.978845608028654,0,1,1,7.978845608028654,0" class="dot symbol symbol-c color color-csetosa" style="fill: rgb(78, 121, 167); opacity: 0.7;"></path><path transform="translate(112.09920634920643,351.8035714285715)" d="M7.978845608028654,0A7.978845608028654,7.978845608028654,0,1,1,-7.978845608028654,0A7.978845608028654,7.978845608028654,0,1,1,7.978845608028654,0" class="dot symbol symbol-c color color-csetosa" style="fill: rgb(78, 121, 167); opacity: 0.7;"></path><path transform="translate(180.45238095238105,316.2678571428572)" d="M7.978845608028654,0A7.978845608028654,7.978845608028654,0,1,1,-7.978845608028654,0A7.978845608028654,7.978845608028654,0,1,1,7.978845608028654,0" class="dot symbol symbol-c color color-csetosa" style="fill: rgb(78, 121, 167); opacity: 0.7;"></path><path transform="translate(248.80555555555563,209.66071428571433)" d="M7.978845608028654,0A7.978845608028654,7.978845608028654,0,1,1,-7.978845608028654,0A7.978845608028654,7.978845608028654,0,1,1,7.978845608028654,0" class="dot symbol symbol-c color color-csetosa" style="fill: rgb(78, 121, 167); opacity: 0.7;"></path><path transform="translate(166.78174603174602,262.96428571428584)" d="M7.978845608028654,0A7.978845608028654,7.978845608028654,0,1,1,-7.978845608028654,0A7.978845608028654,7.978845608028654,0,1,1,7.978845608028654,0" class="dot symbol symbol-c color color-csetosa" style="fill: rgb(78, 121, 167); opacity: 0.7;"></path><path transform="translate(166.78174603174602,334.03571428571433)" d="M7.978845608028654,0A7.978845608028654,7.978845608028654,0,1,1,-7.978845608028654,0A7.978845608028654,7.978845608028654,0,1,1,7.978845608028654,0" class="dot symbol symbol-c color color-csetosa" style="fill: rgb(78, 121, 167); opacity: 0.7;"></path><path transform="translate(98.42857142857144,334.03571428571433)" d="M7.978845608028654,0A7.978845608028654,7.978845608028654,0,1,1,-7.978845608028654,0A7.978845608028654,7.978845608028654,0,1,1,7.978845608028654,0" class="dot symbol symbol-c color color-csetosa" style="fill: rgb(78, 121, 167); opacity: 0.7;"></path><path transform="translate(303.4880952380952,156.35714285714297)" d="M7.978845608028654,0A7.978845608028654,7.978845608028654,0,1,1,-7.978845608028654,0A7.978845608028654,7.978845608028654,0,1,1,7.978845608028654,0" class="dot symbol symbol-c color color-csetosa" style="fill: rgb(78, 121, 167); opacity: 0.7;"></path><path transform="translate(289.81746031746036,85.28571428571432)" d="M7.978845608028654,0A7.978845608028654,7.978845608028654,0,1,1,-7.978845608028654,0A7.978845608028654,7.978845608028654,0,1,1,7.978845608028654,0" class="dot symbol symbol-c color color-csetosa" style="fill: rgb(78, 121, 167); opacity: 0.7;"></path><path transform="translate(248.80555555555563,174.1250000000001)" d="M7.978845608028654,0A7.978845608028654,7.978845608028654,0,1,1,-7.978845608028654,0A7.978845608028654,7.978845608028654,0,1,1,7.978845608028654,0" class="dot symbol symbol-c color color-csetosa" style="fill: rgb(78, 121, 167); opacity: 0.7;"></path><path transform="translate(207.79365079365076,245.19642857142864)" d="M7.978845608028654,0A7.978845608028654,7.978845608028654,0,1,1,-7.978845608028654,0A7.978845608028654,7.978845608028654,0,1,1,7.978845608028654,0" class="dot symbol symbol-c color color-csetosa" style="fill: rgb(78, 121, 167); opacity: 0.7;"></path><path transform="translate(289.81746031746036,191.89285714285725)" d="M7.978845608028654,0A7.978845608028654,7.978845608028654,0,1,1,-7.978845608028654,0A7.978845608028654,7.978845608028654,0,1,1,7.978845608028654,0" class="dot symbol symbol-c color color-csetosa" style="fill: rgb(78, 121, 167); opacity: 0.7;"></path><path transform="translate(207.79365079365076,191.89285714285725)" d="M7.978845608028654,0A7.978845608028654,7.978845608028654,0,1,1,-7.978845608028654,0A7.978845608028654,7.978845608028654,0,1,1,7.978845608028654,0" class="dot symbol symbol-c color color-csetosa" style="fill: rgb(78, 121, 167); opacity: 0.7;"></path><path transform="translate(248.80555555555563,262.96428571428584)" d="M7.978845608028654,0A7.978845608028654,7.978845608028654,0,1,1,-7.978845608028654,0A7.978845608028654,7.978845608028654,0,1,1,7.978845608028654,0" class="dot symbol symbol-c color color-csetosa" style="fill: rgb(78, 121, 167); opacity: 0.7;"></path><path transform="translate(207.79365079365076,209.66071428571433)" d="M7.978845608028654,0A7.978845608028654,7.978845608028654,0,1,1,-7.978845608028654,0A7.978845608028654,7.978845608028654,0,1,1,7.978845608028654,0" class="dot symbol symbol-c color color-csetosa" style="fill: rgb(78, 121, 167); opacity: 0.7;"></path><path transform="translate(139.44047619047618,227.42857142857147)" d="M7.978845608028654,0A7.978845608028654,7.978845608028654,0,1,1,-7.978845608028654,0A7.978845608028654,7.978845608028654,0,1,1,7.978845608028654,0" class="dot symbol symbol-c color color-csetosa" style="fill: rgb(78, 121, 167); opacity: 0.7;"></path><path transform="translate(207.79365079365076,280.732142857143)" d="M7.978845608028654,0A7.978845608028654,7.978845608028654,0,1,1,-7.978845608028654,0A7.978845608028654,7.978845608028654,0,1,1,7.978845608028654,0" class="dot symbol symbol-c color color-csetosa" style="fill: rgb(78, 121, 167); opacity: 0.7;"></path><path transform="translate(166.78174603174602,262.96428571428584)" d="M7.978845608028654,0A7.978845608028654,7.978845608028654,0,1,1,-7.978845608028654,0A7.978845608028654,7.978845608028654,0,1,1,7.978845608028654,0" class="dot symbol symbol-c color color-csetosa" style="fill: rgb(78, 121, 167); opacity: 0.7;"></path><path transform="translate(194.12301587301587,334.03571428571433)" d="M7.978845608028654,0A7.978845608028654,7.978845608028654,0,1,1,-7.978845608028654,0A7.978845608028654,7.978845608028654,0,1,1,7.978845608028654,0" class="dot symbol symbol-c color color-csetosa" style="fill: rgb(78, 121, 167); opacity: 0.7;"></path><path transform="translate(194.12301587301587,262.96428571428584)" d="M7.978845608028654,0A7.978845608028654,7.978845608028654,0,1,1,-7.978845608028654,0A7.978845608028654,7.978845608028654,0,1,1,7.978845608028654,0" class="dot symbol symbol-c color color-csetosa" style="fill: rgb(78, 121, 167); opacity: 0.7;"></path><path transform="translate(221.46428571428572,245.19642857142864)" d="M7.978845608028654,0A7.978845608028654,7.978845608028654,0,1,1,-7.978845608028654,0A7.978845608028654,7.978845608028654,0,1,1,7.978845608028654,0" class="dot symbol symbol-c color color-csetosa" style="fill: rgb(78, 121, 167); opacity: 0.7;"></path><path transform="translate(221.46428571428572,262.96428571428584)" d="M7.978845608028654,0A7.978845608028654,7.978845608028654,0,1,1,-7.978845608028654,0A7.978845608028654,7.978845608028654,0,1,1,7.978845608028654,0" class="dot symbol symbol-c color color-csetosa" style="fill: rgb(78, 121, 167); opacity: 0.7;"></path><path transform="translate(153.11111111111117,298.5)" d="M7.978845608028654,0A7.978845608028654,7.978845608028654,0,1,1,-7.978845608028654,0A7.978845608028654,7.978845608028654,0,1,1,7.978845608028654,0" class="dot symbol symbol-c color color-csetosa" style="fill: rgb(78, 121, 167); opacity: 0.7;"></path><path transform="translate(166.78174603174602,316.2678571428572)" d="M7.978845608028654,0A7.978845608028654,7.978845608028654,0,1,1,-7.978845608028654,0A7.978845608028654,7.978845608028654,0,1,1,7.978845608028654,0" class="dot symbol symbol-c color color-csetosa" style="fill: rgb(78, 121, 167); opacity: 0.7;"></path><path transform="translate(248.80555555555563,262.96428571428584)" d="M7.978845608028654,0A7.978845608028654,7.978845608028654,0,1,1,-7.978845608028654,0A7.978845608028654,7.978845608028654,0,1,1,7.978845608028654,0" class="dot symbol symbol-c color color-csetosa" style="fill: rgb(78, 121, 167); opacity: 0.7;"></path><path transform="translate(221.46428571428572,138.5892857142859)" d="M7.978845608028654,0A7.978845608028654,7.978845608028654,0,1,1,-7.978845608028654,0A7.978845608028654,7.978845608028654,0,1,1,7.978845608028654,0" class="dot symbol symbol-c color color-csetosa" style="fill: rgb(78, 121, 167); opacity: 0.7;"></path><path transform="translate(262.4761904761905,120.82142857142867)" d="M7.978845608028654,0A7.978845608028654,7.978845608028654,0,1,1,-7.978845608028654,0A7.978845608028654,7.978845608028654,0,1,1,7.978845608028654,0" class="dot symbol symbol-c color color-csetosa" style="fill: rgb(78, 121, 167); opacity: 0.7;"></path><path transform="translate(180.45238095238105,316.2678571428572)" d="M7.978845608028654,0A7.978845608028654,7.978845608028654,0,1,1,-7.978845608028654,0A7.978845608028654,7.978845608028654,0,1,1,7.978845608028654,0" class="dot symbol symbol-c color color-csetosa" style="fill: rgb(78, 121, 167); opacity: 0.7;"></path><path transform="translate(194.12301587301587,298.5)" d="M7.978845608028654,0A7.978845608028654,7.978845608028654,0,1,1,-7.978845608028654,0A7.978845608028654,7.978845608028654,0,1,1,7.978845608028654,0" class="dot symbol symbol-c color color-csetosa" style="fill: rgb(78, 121, 167); opacity: 0.7;"></path><path transform="translate(262.4761904761905,245.19642857142864)" d="M7.978845608028654,0A7.978845608028654,7.978845608028654,0,1,1,-7.978845608028654,0A7.978845608028654,7.978845608028654,0,1,1,7.978845608028654,0" class="dot symbol symbol-c color color-csetosa" style="fill: rgb(78, 121, 167); opacity: 0.7;"></path><path transform="translate(180.45238095238105,227.42857142857147)" d="M7.978845608028654,0A7.978845608028654,7.978845608028654,0,1,1,-7.978845608028654,0A7.978845608028654,7.978845608028654,0,1,1,7.978845608028654,0" class="dot symbol symbol-c color color-csetosa" style="fill: rgb(78, 121, 167); opacity: 0.7;"></path><path transform="translate(112.09920634920643,334.03571428571433)" d="M7.978845608028654,0A7.978845608028654,7.978845608028654,0,1,1,-7.978845608028654,0A7.978845608028654,7.978845608028654,0,1,1,7.978845608028654,0" class="dot symbol symbol-c color color-csetosa" style="fill: rgb(78, 121, 167); opacity: 0.7;"></path><path transform="translate(207.79365079365076,262.96428571428584)" d="M7.978845608028654,0A7.978845608028654,7.978845608028654,0,1,1,-7.978845608028654,0A7.978845608028654,7.978845608028654,0,1,1,7.978845608028654,0" class="dot symbol symbol-c color color-csetosa" style="fill: rgb(78, 121, 167); opacity: 0.7;"></path><path transform="translate(194.12301587301587,245.19642857142864)" d="M7.978845608028654,0A7.978845608028654,7.978845608028654,0,1,1,-7.978845608028654,0A7.978845608028654,7.978845608028654,0,1,1,7.978845608028654,0" class="dot symbol symbol-c color color-csetosa" style="fill: rgb(78, 121, 167); opacity: 0.7;"></path><path transform="translate(125.76984126984131,458.4107142857144)" d="M7.978845608028654,0A7.978845608028654,7.978845608028654,0,1,1,-7.978845608028654,0A7.978845608028654,7.978845608028654,0,1,1,7.978845608028654,0" class="dot symbol symbol-c color color-csetosa" style="fill: rgb(78, 121, 167); opacity: 0.7;"></path><path transform="translate(112.09920634920643,298.5)" d="M7.978845608028654,0A7.978845608028654,7.978845608028654,0,1,1,-7.978845608028654,0A7.978845608028654,7.978845608028654,0,1,1,7.978845608028654,0" class="dot symbol symbol-c color color-csetosa" style="fill: rgb(78, 121, 167); opacity: 0.7;"></path><path transform="translate(194.12301587301587,245.19642857142864)" d="M7.978845608028654,0A7.978845608028654,7.978845608028654,0,1,1,-7.978845608028654,0A7.978845608028654,7.978845608028654,0,1,1,7.978845608028654,0" class="dot symbol symbol-c color color-csetosa" style="fill: rgb(78, 121, 167); opacity: 0.7;"></path><path transform="translate(207.79365079365076,191.89285714285725)" d="M7.978845608028654,0A7.978845608028654,7.978845608028654,0,1,1,-7.978845608028654,0A7.978845608028654,7.978845608028654,0,1,1,7.978845608028654,0" class="dot symbol symbol-c color color-csetosa" style="fill: rgb(78, 121, 167); opacity: 0.7;"></path><path transform="translate(166.78174603174602,334.03571428571433)" d="M7.978845608028654,0A7.978845608028654,7.978845608028654,0,1,1,-7.978845608028654,0A7.978845608028654,7.978845608028654,0,1,1,7.978845608028654,0" class="dot symbol symbol-c color color-csetosa" style="fill: rgb(78, 121, 167); opacity: 0.7;"></path><path transform="translate(207.79365079365076,191.89285714285725)" d="M7.978845608028654,0A7.978845608028654,7.978845608028654,0,1,1,-7.978845608028654,0A7.978845608028654,7.978845608028654,0,1,1,7.978845608028654,0" class="dot symbol symbol-c color color-csetosa" style="fill: rgb(78, 121, 167); opacity: 0.7;"></path><path transform="translate(139.44047619047618,298.5)" d="M7.978845608028654,0A7.978845608028654,7.978845608028654,0,1,1,-7.978845608028654,0A7.978845608028654,7.978845608028654,0,1,1,7.978845608028654,0" class="dot symbol symbol-c color color-csetosa" style="fill: rgb(78, 121, 167); opacity: 0.7;"></path><path transform="translate(235.1349206349206,209.66071428571433)" d="M7.978845608028654,0A7.978845608028654,7.978845608028654,0,1,1,-7.978845608028654,0A7.978845608028654,7.978845608028654,0,1,1,7.978845608028654,0" class="dot symbol symbol-c color color-csetosa" style="fill: rgb(78, 121, 167); opacity: 0.7;"></path><path transform="translate(194.12301587301587,280.732142857143)" d="M7.978845608028654,0A7.978845608028654,7.978845608028654,0,1,1,-7.978845608028654,0A7.978845608028654,7.978845608028654,0,1,1,7.978845608028654,0" class="dot symbol symbol-c color color-csetosa" style="fill: rgb(78, 121, 167); opacity: 0.7;"></path><path transform="translate(467.5357142857142,298.5)" d="M7.978845608028654,0A7.978845608028654,7.978845608028654,0,1,1,-7.978845608028654,0A7.978845608028654,7.978845608028654,0,1,1,7.978845608028654,0" class="dot symbol symbol-c color color-cversicolor" style="fill: rgb(242, 142, 44); opacity: 0.7;"></path><path transform="translate(385.51190476190476,298.5)" d="M7.978845608028654,0A7.978845608028654,7.978845608028654,0,1,1,-7.978845608028654,0A7.978845608028654,7.978845608028654,0,1,1,7.978845608028654,0" class="dot symbol symbol-c color color-cversicolor" style="fill: rgb(242, 142, 44); opacity: 0.7;"></path><path transform="translate(453.86507936507934,316.2678571428572)" d="M7.978845608028654,0A7.978845608028654,7.978845608028654,0,1,1,-7.978845608028654,0A7.978845608028654,7.978845608028654,0,1,1,7.978845608028654,0" class="dot symbol symbol-c color color-cversicolor" style="fill: rgb(242, 142, 44); opacity: 0.7;"></path><path transform="translate(262.4761904761905,458.4107142857144)" d="M7.978845608028654,0A7.978845608028654,7.978845608028654,0,1,1,-7.978845608028654,0A7.978845608028654,7.978845608028654,0,1,1,7.978845608028654,0" class="dot symbol symbol-c color color-cversicolor" style="fill: rgb(242, 142, 44); opacity: 0.7;"></path><path transform="translate(399.18253968253964,369.57142857142867)" d="M7.978845608028654,0A7.978845608028654,7.978845608028654,0,1,1,-7.978845608028654,0A7.978845608028654,7.978845608028654,0,1,1,7.978845608028654,0" class="dot symbol symbol-c color color-cversicolor" style="fill: rgb(242, 142, 44); opacity: 0.7;"></path><path transform="translate(289.81746031746036,369.57142857142867)" d="M7.978845608028654,0A7.978845608028654,7.978845608028654,0,1,1,-7.978845608028654,0A7.978845608028654,7.978845608028654,0,1,1,7.978845608028654,0" class="dot symbol symbol-c color color-cversicolor" style="fill: rgb(242, 142, 44); opacity: 0.7;"></path><path transform="translate(371.8412698412698,280.732142857143)" d="M7.978845608028654,0A7.978845608028654,7.978845608028654,0,1,1,-7.978845608028654,0A7.978845608028654,7.978845608028654,0,1,1,7.978845608028654,0" class="dot symbol symbol-c color color-cversicolor" style="fill: rgb(242, 142, 44); opacity: 0.7;"></path><path transform="translate(180.45238095238105,440.64285714285717)" d="M7.978845608028654,0A7.978845608028654,7.978845608028654,0,1,1,-7.978845608028654,0A7.978845608028654,7.978845608028654,0,1,1,7.978845608028654,0" class="dot symbol symbol-c color color-cversicolor" style="fill: rgb(242, 142, 44); opacity: 0.7;"></path><path transform="translate(412.8531746031745,351.8035714285715)" d="M7.978845608028654,0A7.978845608028654,7.978845608028654,0,1,1,-7.978845608028654,0A7.978845608028654,7.978845608028654,0,1,1,7.978845608028654,0" class="dot symbol symbol-c color color-cversicolor" style="fill: rgb(242, 142, 44); opacity: 0.7;"></path><path transform="translate(221.46428571428572,387.3392857142857)" d="M7.978845608028654,0A7.978845608028654,7.978845608028654,0,1,1,-7.978845608028654,0A7.978845608028654,7.978845608028654,0,1,1,7.978845608028654,0" class="dot symbol symbol-c color color-cversicolor" style="fill: rgb(242, 142, 44); opacity: 0.7;"></path><path transform="translate(194.12301587301587,511.7142857142858)" d="M7.978845608028654,0A7.978845608028654,7.978845608028654,0,1,1,-7.978845608028654,0A7.978845608028654,7.978845608028654,0,1,1,7.978845608028654,0" class="dot symbol symbol-c color color-cversicolor" style="fill: rgb(242, 142, 44); opacity: 0.7;"></path><path transform="translate(317.15873015873024,334.03571428571433)" d="M7.978845608028654,0A7.978845608028654,7.978845608028654,0,1,1,-7.978845608028654,0A7.978845608028654,7.978845608028654,0,1,1,7.978845608028654,0" class="dot symbol symbol-c color color-cversicolor" style="fill: rgb(242, 142, 44); opacity: 0.7;"></path><path transform="translate(330.82936507936506,476.17857142857144)" d="M7.978845608028654,0A7.978845608028654,7.978845608028654,0,1,1,-7.978845608028654,0A7.978845608028654,7.978845608028654,0,1,1,7.978845608028654,0" class="dot symbol symbol-c color color-cversicolor" style="fill: rgb(242, 142, 44); opacity: 0.7;"></path><path transform="translate(344.49999999999994,351.8035714285715)" d="M7.978845608028654,0A7.978845608028654,7.978845608028654,0,1,1,-7.978845608028654,0A7.978845608028654,7.978845608028654,0,1,1,7.978845608028654,0" class="dot symbol symbol-c color color-cversicolor" style="fill: rgb(242, 142, 44); opacity: 0.7;"></path><path transform="translate(276.1468253968253,351.8035714285715)" d="M7.978845608028654,0A7.978845608028654,7.978845608028654,0,1,1,-7.978845608028654,0A7.978845608028654,7.978845608028654,0,1,1,7.978845608028654,0" class="dot symbol symbol-c color color-cversicolor" style="fill: rgb(242, 142, 44); opacity: 0.7;"></path><path transform="translate(426.5238095238095,316.2678571428572)" d="M7.978845608028654,0A7.978845608028654,7.978845608028654,0,1,1,-7.978845608028654,0A7.978845608028654,7.978845608028654,0,1,1,7.978845608028654,0" class="dot symbol symbol-c color color-cversicolor" style="fill: rgb(242, 142, 44); opacity: 0.7;"></path><path transform="translate(276.1468253968253,334.03571428571433)" d="M7.978845608028654,0A7.978845608028654,7.978845608028654,0,1,1,-7.978845608028654,0A7.978845608028654,7.978845608028654,0,1,1,7.978845608028654,0" class="dot symbol symbol-c color color-cversicolor" style="fill: rgb(242, 142, 44); opacity: 0.7;"></path><path transform="translate(303.4880952380952,387.3392857142857)" d="M7.978845608028654,0A7.978845608028654,7.978845608028654,0,1,1,-7.978845608028654,0A7.978845608028654,7.978845608028654,0,1,1,7.978845608028654,0" class="dot symbol symbol-c color color-cversicolor" style="fill: rgb(242, 142, 44); opacity: 0.7;"></path><path transform="translate(358.17063492063494,476.17857142857144)" d="M7.978845608028654,0A7.978845608028654,7.978845608028654,0,1,1,-7.978845608028654,0A7.978845608028654,7.978845608028654,0,1,1,7.978845608028654,0" class="dot symbol symbol-c color color-cversicolor" style="fill: rgb(242, 142, 44); opacity: 0.7;"></path><path transform="translate(276.1468253968253,422.8750000000001)" d="M7.978845608028654,0A7.978845608028654,7.978845608028654,0,1,1,-7.978845608028654,0A7.978845608028654,7.978845608028654,0,1,1,7.978845608028654,0" class="dot symbol symbol-c color color-cversicolor" style="fill: rgb(242, 142, 44); opacity: 0.7;"></path><path transform="translate(317.15873015873024,298.5)" d="M7.978845608028654,0A7.978845608028654,7.978845608028654,0,1,1,-7.978845608028654,0A7.978845608028654,7.978845608028654,0,1,1,7.978845608028654,0" class="dot symbol symbol-c color color-cversicolor" style="fill: rgb(242, 142, 44); opacity: 0.7;"></path><path transform="translate(344.49999999999994,369.57142857142867)" d="M7.978845608028654,0A7.978845608028654,7.978845608028654,0,1,1,-7.978845608028654,0A7.978845608028654,7.978845608028654,0,1,1,7.978845608028654,0" class="dot symbol symbol-c color color-cversicolor" style="fill: rgb(242, 142, 44); opacity: 0.7;"></path><path transform="translate(371.8412698412698,422.8750000000001)" d="M7.978845608028654,0A7.978845608028654,7.978845608028654,0,1,1,-7.978845608028654,0A7.978845608028654,7.978845608028654,0,1,1,7.978845608028654,0" class="dot symbol symbol-c color color-cversicolor" style="fill: rgb(242, 142, 44); opacity: 0.7;"></path><path transform="translate(344.49999999999994,369.57142857142867)" d="M7.978845608028654,0A7.978845608028654,7.978845608028654,0,1,1,-7.978845608028654,0A7.978845608028654,7.978845608028654,0,1,1,7.978845608028654,0" class="dot symbol symbol-c color color-cversicolor" style="fill: rgb(242, 142, 44); opacity: 0.7;"></path><path transform="translate(385.51190476190476,351.8035714285715)" d="M7.978845608028654,0A7.978845608028654,7.978845608028654,0,1,1,-7.978845608028654,0A7.978845608028654,7.978845608028654,0,1,1,7.978845608028654,0" class="dot symbol symbol-c color color-cversicolor" style="fill: rgb(242, 142, 44); opacity: 0.7;"></path><path transform="translate(412.8531746031745,334.03571428571433)" d="M7.978845608028654,0A7.978845608028654,7.978845608028654,0,1,1,-7.978845608028654,0A7.978845608028654,7.978845608028654,0,1,1,7.978845608028654,0" class="dot symbol symbol-c color color-cversicolor" style="fill: rgb(242, 142, 44); opacity: 0.7;"></path><path transform="translate(440.1944444444444,369.57142857142867)" d="M7.978845608028654,0A7.978845608028654,7.978845608028654,0,1,1,-7.978845608028654,0A7.978845608028654,7.978845608028654,0,1,1,7.978845608028654,0" class="dot symbol symbol-c color color-cversicolor" style="fill: rgb(242, 142, 44); opacity: 0.7;"></path><path transform="translate(426.5238095238095,334.03571428571433)" d="M7.978845608028654,0A7.978845608028654,7.978845608028654,0,1,1,-7.978845608028654,0A7.978845608028654,7.978845608028654,0,1,1,7.978845608028654,0" class="dot symbol symbol-c color color-cversicolor" style="fill: rgb(242, 142, 44); opacity: 0.7;"></path><path transform="translate(330.82936507936506,351.8035714285715)" d="M7.978845608028654,0A7.978845608028654,7.978845608028654,0,1,1,-7.978845608028654,0A7.978845608028654,7.978845608028654,0,1,1,7.978845608028654,0" class="dot symbol symbol-c color color-cversicolor" style="fill: rgb(242, 142, 44); opacity: 0.7;"></path><path transform="translate(289.81746031746036,405.1071428571429)" d="M7.978845608028654,0A7.978845608028654,7.978845608028654,0,1,1,-7.978845608028654,0A7.978845608028654,7.978845608028654,0,1,1,7.978845608028654,0" class="dot symbol symbol-c color color-cversicolor" style="fill: rgb(242, 142, 44); opacity: 0.7;"></path><path transform="translate(262.4761904761905,440.64285714285717)" d="M7.978845608028654,0A7.978845608028654,7.978845608028654,0,1,1,-7.978845608028654,0A7.978845608028654,7.978845608028654,0,1,1,7.978845608028654,0" class="dot symbol symbol-c color color-cversicolor" style="fill: rgb(242, 142, 44); opacity: 0.7;"></path><path transform="translate(262.4761904761905,440.64285714285717)" d="M7.978845608028654,0A7.978845608028654,7.978845608028654,0,1,1,-7.978845608028654,0A7.978845608028654,7.978845608028654,0,1,1,7.978845608028654,0" class="dot symbol symbol-c color color-cversicolor" style="fill: rgb(242, 142, 44); opacity: 0.7;"></path><path transform="translate(303.4880952380952,387.3392857142857)" d="M7.978845608028654,0A7.978845608028654,7.978845608028654,0,1,1,-7.978845608028654,0A7.978845608028654,7.978845608028654,0,1,1,7.978845608028654,0" class="dot symbol symbol-c color color-cversicolor" style="fill: rgb(242, 142, 44); opacity: 0.7;"></path><path transform="translate(330.82936507936506,387.3392857142857)" d="M7.978845608028654,0A7.978845608028654,7.978845608028654,0,1,1,-7.978845608028654,0A7.978845608028654,7.978845608028654,0,1,1,7.978845608028654,0" class="dot symbol symbol-c color color-cversicolor" style="fill: rgb(242, 142, 44); opacity: 0.7;"></path><path transform="translate(248.80555555555563,334.03571428571433)" d="M7.978845608028654,0A7.978845608028654,7.978845608028654,0,1,1,-7.978845608028654,0A7.978845608028654,7.978845608028654,0,1,1,7.978845608028654,0" class="dot symbol symbol-c color color-cversicolor" style="fill: rgb(242, 142, 44); opacity: 0.7;"></path><path transform="translate(330.82936507936506,262.96428571428584)" d="M7.978845608028654,0A7.978845608028654,7.978845608028654,0,1,1,-7.978845608028654,0A7.978845608028654,7.978845608028654,0,1,1,7.978845608028654,0" class="dot symbol symbol-c color color-cversicolor" style="fill: rgb(242, 142, 44); opacity: 0.7;"></path><path transform="translate(426.5238095238095,316.2678571428572)" d="M7.978845608028654,0A7.978845608028654,7.978845608028654,0,1,1,-7.978845608028654,0A7.978845608028654,7.978845608028654,0,1,1,7.978845608028654,0" class="dot symbol symbol-c color color-cversicolor" style="fill: rgb(242, 142, 44); opacity: 0.7;"></path><path transform="translate(371.8412698412698,458.4107142857144)" d="M7.978845608028654,0A7.978845608028654,7.978845608028654,0,1,1,-7.978845608028654,0A7.978845608028654,7.978845608028654,0,1,1,7.978845608028654,0" class="dot symbol symbol-c color color-cversicolor" style="fill: rgb(242, 142, 44); opacity: 0.7;"></path><path transform="translate(276.1468253968253,334.03571428571433)" d="M7.978845608028654,0A7.978845608028654,7.978845608028654,0,1,1,-7.978845608028654,0A7.978845608028654,7.978845608028654,0,1,1,7.978845608028654,0" class="dot symbol symbol-c color color-cversicolor" style="fill: rgb(242, 142, 44); opacity: 0.7;"></path><path transform="translate(262.4761904761905,422.8750000000001)" d="M7.978845608028654,0A7.978845608028654,7.978845608028654,0,1,1,-7.978845608028654,0A7.978845608028654,7.978845608028654,0,1,1,7.978845608028654,0" class="dot symbol symbol-c color color-cversicolor" style="fill: rgb(242, 142, 44); opacity: 0.7;"></path><path transform="translate(262.4761904761905,405.1071428571429)" d="M7.978845608028654,0A7.978845608028654,7.978845608028654,0,1,1,-7.978845608028654,0A7.978845608028654,7.978845608028654,0,1,1,7.978845608028654,0" class="dot symbol symbol-c color color-cversicolor" style="fill: rgb(242, 142, 44); opacity: 0.7;"></path><path transform="translate(344.49999999999994,334.03571428571433)" d="M7.978845608028654,0A7.978845608028654,7.978845608028654,0,1,1,-7.978845608028654,0A7.978845608028654,7.978845608028654,0,1,1,7.978845608028654,0" class="dot symbol symbol-c color color-cversicolor" style="fill: rgb(242, 142, 44); opacity: 0.7;"></path><path transform="translate(303.4880952380952,405.1071428571429)" d="M7.978845608028654,0A7.978845608028654,7.978845608028654,0,1,1,-7.978845608028654,0A7.978845608028654,7.978845608028654,0,1,1,7.978845608028654,0" class="dot symbol symbol-c color color-cversicolor" style="fill: rgb(242, 142, 44); opacity: 0.7;"></path><path transform="translate(194.12301587301587,458.4107142857144)" d="M7.978845608028654,0A7.978845608028654,7.978845608028654,0,1,1,-7.978845608028654,0A7.978845608028654,7.978845608028654,0,1,1,7.978845608028654,0" class="dot symbol symbol-c color color-cversicolor" style="fill: rgb(242, 142, 44); opacity: 0.7;"></path><path transform="translate(276.1468253968253,387.3392857142857)" d="M7.978845608028654,0A7.978845608028654,7.978845608028654,0,1,1,-7.978845608028654,0A7.978845608028654,7.978845608028654,0,1,1,7.978845608028654,0" class="dot symbol symbol-c color color-cversicolor" style="fill: rgb(242, 142, 44); opacity: 0.7;"></path><path transform="translate(289.81746031746036,334.03571428571433)" d="M7.978845608028654,0A7.978845608028654,7.978845608028654,0,1,1,-7.978845608028654,0A7.978845608028654,7.978845608028654,0,1,1,7.978845608028654,0" class="dot symbol symbol-c color color-cversicolor" style="fill: rgb(242, 142, 44); opacity: 0.7;"></path><path transform="translate(289.81746031746036,351.8035714285715)" d="M7.978845608028654,0A7.978845608028654,7.978845608028654,0,1,1,-7.978845608028654,0A7.978845608028654,7.978845608028654,0,1,1,7.978845608028654,0" class="dot symbol symbol-c color color-cversicolor" style="fill: rgb(242, 142, 44); opacity: 0.7;"></path><path transform="translate(358.17063492063494,351.8035714285715)" d="M7.978845608028654,0A7.978845608028654,7.978845608028654,0,1,1,-7.978845608028654,0A7.978845608028654,7.978845608028654,0,1,1,7.978845608028654,0" class="dot symbol symbol-c color color-cversicolor" style="fill: rgb(242, 142, 44); opacity: 0.7;"></path><path transform="translate(207.79365079365076,422.8750000000001)" d="M7.978845608028654,0A7.978845608028654,7.978845608028654,0,1,1,-7.978845608028654,0A7.978845608028654,7.978845608028654,0,1,1,7.978845608028654,0" class="dot symbol symbol-c color color-cversicolor" style="fill: rgb(242, 142, 44); opacity: 0.7;"></path><path transform="translate(289.81746031746036,369.57142857142867)" d="M7.978845608028654,0A7.978845608028654,7.978845608028654,0,1,1,-7.978845608028654,0A7.978845608028654,7.978845608028654,0,1,1,7.978845608028654,0" class="dot symbol symbol-c color color-cversicolor" style="fill: rgb(242, 142, 44); opacity: 0.7;"></path><path transform="translate(371.8412698412698,280.732142857143)" d="M7.978845608028654,0A7.978845608028654,7.978845608028654,0,1,1,-7.978845608028654,0A7.978845608028654,7.978845608028654,0,1,1,7.978845608028654,0" class="dot symbol symbol-c color color-cvirginica" style="fill: rgb(225, 87, 89); opacity: 0.7;"></path><path transform="translate(303.4880952380952,387.3392857142857)" d="M7.978845608028654,0A7.978845608028654,7.978845608028654,0,1,1,-7.978845608028654,0A7.978845608028654,7.978845608028654,0,1,1,7.978845608028654,0" class="dot symbol symbol-c color color-cvirginica" style="fill: rgb(225, 87, 89); opacity: 0.7;"></path><path transform="translate(481.2063492063491,334.03571428571433)" d="M7.978845608028654,0A7.978845608028654,7.978845608028654,0,1,1,-7.978845608028654,0A7.978845608028654,7.978845608028654,0,1,1,7.978845608028654,0" class="dot symbol symbol-c color color-cvirginica" style="fill: rgb(225, 87, 89); opacity: 0.7;"></path><path transform="translate(371.8412698412698,351.8035714285715)" d="M7.978845608028654,0A7.978845608028654,7.978845608028654,0,1,1,-7.978845608028654,0A7.978845608028654,7.978845608028654,0,1,1,7.978845608028654,0" class="dot symbol symbol-c color color-cvirginica" style="fill: rgb(225, 87, 89); opacity: 0.7;"></path><path transform="translate(399.18253968253964,334.03571428571433)" d="M7.978845608028654,0A7.978845608028654,7.978845608028654,0,1,1,-7.978845608028654,0A7.978845608028654,7.978845608028654,0,1,1,7.978845608028654,0" class="dot symbol symbol-c color color-cvirginica" style="fill: rgb(225, 87, 89); opacity: 0.7;"></path><path transform="translate(549.5595238095236,334.03571428571433)" d="M7.978845608028654,0A7.978845608028654,7.978845608028654,0,1,1,-7.978845608028654,0A7.978845608028654,7.978845608028654,0,1,1,7.978845608028654,0" class="dot symbol symbol-c color color-cvirginica" style="fill: rgb(225, 87, 89); opacity: 0.7;"></path><path transform="translate(180.45238095238105,422.8750000000001)" d="M7.978845608028654,0A7.978845608028654,7.978845608028654,0,1,1,-7.978845608028654,0A7.978845608028654,7.978845608028654,0,1,1,7.978845608028654,0" class="dot symbol symbol-c color color-cvirginica" style="fill: rgb(225, 87, 89); opacity: 0.7;"></path><path transform="translate(508.547619047619,351.8035714285715)" d="M7.978845608028654,0A7.978845608028654,7.978845608028654,0,1,1,-7.978845608028654,0A7.978845608028654,7.978845608028654,0,1,1,7.978845608028654,0" class="dot symbol symbol-c color color-cvirginica" style="fill: rgb(225, 87, 89); opacity: 0.7;"></path><path transform="translate(426.5238095238095,422.8750000000001)" d="M7.978845608028654,0A7.978845608028654,7.978845608028654,0,1,1,-7.978845608028654,0A7.978845608028654,7.978845608028654,0,1,1,7.978845608028654,0" class="dot symbol symbol-c color color-cvirginica" style="fill: rgb(225, 87, 89); opacity: 0.7;"></path><path transform="translate(494.87698412698415,227.42857142857147)" d="M7.978845608028654,0A7.978845608028654,7.978845608028654,0,1,1,-7.978845608028654,0A7.978845608028654,7.978845608028654,0,1,1,7.978845608028654,0" class="dot symbol symbol-c color color-cvirginica" style="fill: rgb(225, 87, 89); opacity: 0.7;"></path><path transform="translate(399.18253968253964,298.5)" d="M7.978845608028654,0A7.978845608028654,7.978845608028654,0,1,1,-7.978845608028654,0A7.978845608028654,7.978845608028654,0,1,1,7.978845608028654,0" class="dot symbol symbol-c color color-cvirginica" style="fill: rgb(225, 87, 89); opacity: 0.7;"></path><path transform="translate(385.51190476190476,387.3392857142857)" d="M7.978845608028654,0A7.978845608028654,7.978845608028654,0,1,1,-7.978845608028654,0A7.978845608028654,7.978845608028654,0,1,1,7.978845608028654,0" class="dot symbol symbol-c color color-cvirginica" style="fill: rgb(225, 87, 89); opacity: 0.7;"></path><path transform="translate(440.1944444444444,334.03571428571433)" d="M7.978845608028654,0A7.978845608028654,7.978845608028654,0,1,1,-7.978845608028654,0A7.978845608028654,7.978845608028654,0,1,1,7.978845608028654,0" class="dot symbol symbol-c color color-cvirginica" style="fill: rgb(225, 87, 89); opacity: 0.7;"></path><path transform="translate(289.81746031746036,422.8750000000001)" d="M7.978845608028654,0A7.978845608028654,7.978845608028654,0,1,1,-7.978845608028654,0A7.978845608028654,7.978845608028654,0,1,1,7.978845608028654,0" class="dot symbol symbol-c color color-cvirginica" style="fill: rgb(225, 87, 89); opacity: 0.7;"></path><path transform="translate(303.4880952380952,369.57142857142867)" d="M7.978845608028654,0A7.978845608028654,7.978845608028654,0,1,1,-7.978845608028654,0A7.978845608028654,7.978845608028654,0,1,1,7.978845608028654,0" class="dot symbol symbol-c color color-cvirginica" style="fill: rgb(225, 87, 89); opacity: 0.7;"></path><path transform="translate(385.51190476190476,298.5)" d="M7.978845608028654,0A7.978845608028654,7.978845608028654,0,1,1,-7.978845608028654,0A7.978845608028654,7.978845608028654,0,1,1,7.978845608028654,0" class="dot symbol symbol-c color color-cvirginica" style="fill: rgb(225, 87, 89); opacity: 0.7;"></path><path transform="translate(399.18253968253964,334.03571428571433)" d="M7.978845608028654,0A7.978845608028654,7.978845608028654,0,1,1,-7.978845608028654,0A7.978845608028654,7.978845608028654,0,1,1,7.978845608028654,0" class="dot symbol symbol-c color color-cvirginica" style="fill: rgb(225, 87, 89); opacity: 0.7;"></path><path transform="translate(563.2301587301588,191.89285714285725)" d="M7.978845608028654,0A7.978845608028654,7.978845608028654,0,1,1,-7.978845608028654,0A7.978845608028654,7.978845608028654,0,1,1,7.978845608028654,0" class="dot symbol symbol-c color color-cvirginica" style="fill: rgb(225, 87, 89); opacity: 0.7;"></path><path transform="translate(563.2301587301588,405.1071428571429)" d="M7.978845608028654,0A7.978845608028654,7.978845608028654,0,1,1,-7.978845608028654,0A7.978845608028654,7.978845608028654,0,1,1,7.978845608028654,0" class="dot symbol symbol-c color color-cvirginica" style="fill: rgb(225, 87, 89); opacity: 0.7;"></path><path transform="translate(330.82936507936506,476.17857142857144)" d="M7.978845608028654,0A7.978845608028654,7.978845608028654,0,1,1,-7.978845608028654,0A7.978845608028654,7.978845608028654,0,1,1,7.978845608028654,0" class="dot symbol symbol-c color color-cvirginica" style="fill: rgb(225, 87, 89); opacity: 0.7;"></path><path transform="translate(453.86507936507934,298.5)" d="M7.978845608028654,0A7.978845608028654,7.978845608028654,0,1,1,-7.978845608028654,0A7.978845608028654,7.978845608028654,0,1,1,7.978845608028654,0" class="dot symbol symbol-c color color-cvirginica" style="fill: rgb(225, 87, 89); opacity: 0.7;"></path><path transform="translate(276.1468253968253,369.57142857142867)" d="M7.978845608028654,0A7.978845608028654,7.978845608028654,0,1,1,-7.978845608028654,0A7.978845608028654,7.978845608028654,0,1,1,7.978845608028654,0" class="dot symbol symbol-c color color-cvirginica" style="fill: rgb(225, 87, 89); opacity: 0.7;"></path><path transform="translate(563.2301587301588,369.57142857142867)" d="M7.978845608028654,0A7.978845608028654,7.978845608028654,0,1,1,-7.978845608028654,0A7.978845608028654,7.978845608028654,0,1,1,7.978845608028654,0" class="dot symbol symbol-c color color-cvirginica" style="fill: rgb(225, 87, 89); opacity: 0.7;"></path><path transform="translate(371.8412698412698,387.3392857142857)" d="M7.978845608028654,0A7.978845608028654,7.978845608028654,0,1,1,-7.978845608028654,0A7.978845608028654,7.978845608028654,0,1,1,7.978845608028654,0" class="dot symbol symbol-c color color-cvirginica" style="fill: rgb(225, 87, 89); opacity: 0.7;"></path><path transform="translate(426.5238095238095,280.732142857143)" d="M7.978845608028654,0A7.978845608028654,7.978845608028654,0,1,1,-7.978845608028654,0A7.978845608028654,7.978845608028654,0,1,1,7.978845608028654,0" class="dot symbol symbol-c color color-cvirginica" style="fill: rgb(225, 87, 89); opacity: 0.7;"></path><path transform="translate(494.87698412698415,298.5)" d="M7.978845608028654,0A7.978845608028654,7.978845608028654,0,1,1,-7.978845608028654,0A7.978845608028654,7.978845608028654,0,1,1,7.978845608028654,0" class="dot symbol symbol-c color color-cvirginica" style="fill: rgb(225, 87, 89); opacity: 0.7;"></path><path transform="translate(358.17063492063494,369.57142857142867)" d="M7.978845608028654,0A7.978845608028654,7.978845608028654,0,1,1,-7.978845608028654,0A7.978845608028654,7.978845608028654,0,1,1,7.978845608028654,0" class="dot symbol symbol-c color color-cvirginica" style="fill: rgb(225, 87, 89); opacity: 0.7;"></path><path transform="translate(344.49999999999994,334.03571428571433)" d="M7.978845608028654,0A7.978845608028654,7.978845608028654,0,1,1,-7.978845608028654,0A7.978845608028654,7.978845608028654,0,1,1,7.978845608028654,0" class="dot symbol symbol-c color color-cvirginica" style="fill: rgb(225, 87, 89); opacity: 0.7;"></path><path transform="translate(385.51190476190476,369.57142857142867)" d="M7.978845608028654,0A7.978845608028654,7.978845608028654,0,1,1,-7.978845608028654,0A7.978845608028654,7.978845608028654,0,1,1,7.978845608028654,0" class="dot symbol symbol-c color color-cvirginica" style="fill: rgb(225, 87, 89); opacity: 0.7;"></path><path transform="translate(494.87698412698415,334.03571428571433)" d="M7.978845608028654,0A7.978845608028654,7.978845608028654,0,1,1,-7.978845608028654,0A7.978845608028654,7.978845608028654,0,1,1,7.978845608028654,0" class="dot symbol symbol-c color color-cvirginica" style="fill: rgb(225, 87, 89); opacity: 0.7;"></path><path transform="translate(522.218253968254,369.57142857142867)" d="M7.978845608028654,0A7.978845608028654,7.978845608028654,0,1,1,-7.978845608028654,0A7.978845608028654,7.978845608028654,0,1,1,7.978845608028654,0" class="dot symbol symbol-c color color-cvirginica" style="fill: rgb(225, 87, 89); opacity: 0.7;"></path><path transform="translate(590.5714285714286,191.89285714285725)" d="M7.978845608028654,0A7.978845608028654,7.978845608028654,0,1,1,-7.978845608028654,0A7.978845608028654,7.978845608028654,0,1,1,7.978845608028654,0" class="dot symbol symbol-c color color-cvirginica" style="fill: rgb(225, 87, 89); opacity: 0.7;"></path><path transform="translate(385.51190476190476,369.57142857142867)" d="M7.978845608028654,0A7.978845608028654,7.978845608028654,0,1,1,-7.978845608028654,0A7.978845608028654,7.978845608028654,0,1,1,7.978845608028654,0" class="dot symbol symbol-c color color-cvirginica" style="fill: rgb(225, 87, 89); opacity: 0.7;"></path><path transform="translate(371.8412698412698,369.57142857142867)" d="M7.978845608028654,0A7.978845608028654,7.978845608028654,0,1,1,-7.978845608028654,0A7.978845608028654,7.978845608028654,0,1,1,7.978845608028654,0" class="dot symbol symbol-c color color-cvirginica" style="fill: rgb(225, 87, 89); opacity: 0.7;"></path><path transform="translate(344.49999999999994,405.1071428571429)" d="M7.978845608028654,0A7.978845608028654,7.978845608028654,0,1,1,-7.978845608028654,0A7.978845608028654,7.978845608028654,0,1,1,7.978845608028654,0" class="dot symbol symbol-c color color-cvirginica" style="fill: rgb(225, 87, 89); opacity: 0.7;"></path><path transform="translate(563.2301587301588,334.03571428571433)" d="M7.978845608028654,0A7.978845608028654,7.978845608028654,0,1,1,-7.978845608028654,0A7.978845608028654,7.978845608028654,0,1,1,7.978845608028654,0" class="dot symbol symbol-c color color-cvirginica" style="fill: rgb(225, 87, 89); opacity: 0.7;"></path><path transform="translate(371.8412698412698,262.96428571428584)" d="M7.978845608028654,0A7.978845608028654,7.978845608028654,0,1,1,-7.978845608028654,0A7.978845608028654,7.978845608028654,0,1,1,7.978845608028654,0" class="dot symbol symbol-c color color-cvirginica" style="fill: rgb(225, 87, 89); opacity: 0.7;"></path><path transform="translate(385.51190476190476,316.2678571428572)" d="M7.978845608028654,0A7.978845608028654,7.978845608028654,0,1,1,-7.978845608028654,0A7.978845608028654,7.978845608028654,0,1,1,7.978845608028654,0" class="dot symbol symbol-c color color-cvirginica" style="fill: rgb(225, 87, 89); opacity: 0.7;"></path><path transform="translate(330.82936507936506,334.03571428571433)" d="M7.978845608028654,0A7.978845608028654,7.978845608028654,0,1,1,-7.978845608028654,0A7.978845608028654,7.978845608028654,0,1,1,7.978845608028654,0" class="dot symbol symbol-c color color-cvirginica" style="fill: rgb(225, 87, 89); opacity: 0.7;"></path><path transform="translate(453.86507936507934,316.2678571428572)" d="M7.978845608028654,0A7.978845608028654,7.978845608028654,0,1,1,-7.978845608028654,0A7.978845608028654,7.978845608028654,0,1,1,7.978845608028654,0" class="dot symbol symbol-c color color-cvirginica" style="fill: rgb(225, 87, 89); opacity: 0.7;"></path><path transform="translate(426.5238095238095,316.2678571428572)" d="M7.978845608028654,0A7.978845608028654,7.978845608028654,0,1,1,-7.978845608028654,0A7.978845608028654,7.978845608028654,0,1,1,7.978845608028654,0" class="dot symbol symbol-c color color-cvirginica" style="fill: rgb(225, 87, 89); opacity: 0.7;"></path><path transform="translate(453.86507936507934,316.2678571428572)" d="M7.978845608028654,0A7.978845608028654,7.978845608028654,0,1,1,-7.978845608028654,0A7.978845608028654,7.978845608028654,0,1,1,7.978845608028654,0" class="dot symbol symbol-c color color-cvirginica" style="fill: rgb(225, 87, 89); opacity: 0.7;"></path><path transform="translate(303.4880952380952,387.3392857142857)" d="M7.978845608028654,0A7.978845608028654,7.978845608028654,0,1,1,-7.978845608028654,0A7.978845608028654,7.978845608028654,0,1,1,7.978845608028654,0" class="dot symbol symbol-c color color-cvirginica" style="fill: rgb(225, 87, 89); opacity: 0.7;"></path><path transform="translate(440.1944444444444,298.5)" d="M7.978845608028654,0A7.978845608028654,7.978845608028654,0,1,1,-7.978845608028654,0A7.978845608028654,7.978845608028654,0,1,1,7.978845608028654,0" class="dot symbol symbol-c color color-cvirginica" style="fill: rgb(225, 87, 89); opacity: 0.7;"></path><path transform="translate(426.5238095238095,280.732142857143)" d="M7.978845608028654,0A7.978845608028654,7.978845608028654,0,1,1,-7.978845608028654,0A7.978845608028654,7.978845608028654,0,1,1,7.978845608028654,0" class="dot symbol symbol-c color color-cvirginica" style="fill: rgb(225, 87, 89); opacity: 0.7;"></path><path transform="translate(426.5238095238095,334.03571428571433)" d="M7.978845608028654,0A7.978845608028654,7.978845608028654,0,1,1,-7.978845608028654,0A7.978845608028654,7.978845608028654,0,1,1,7.978845608028654,0" class="dot symbol symbol-c color color-cvirginica" style="fill: rgb(225, 87, 89); opacity: 0.7;"></path><path transform="translate(371.8412698412698,422.8750000000001)" d="M7.978845608028654,0A7.978845608028654,7.978845608028654,0,1,1,-7.978845608028654,0A7.978845608028654,7.978845608028654,0,1,1,7.978845608028654,0" class="dot symbol symbol-c color color-cvirginica" style="fill: rgb(225, 87, 89); opacity: 0.7;"></path><path transform="translate(399.18253968253964,334.03571428571433)" d="M7.978845608028654,0A7.978845608028654,7.978845608028654,0,1,1,-7.978845608028654,0A7.978845608028654,7.978845608028654,0,1,1,7.978845608028654,0" class="dot symbol symbol-c color color-cvirginica" style="fill: rgb(225, 87, 89); opacity: 0.7;"></path><path transform="translate(358.17063492063494,262.96428571428584)" d="M7.978845608028654,0A7.978845608028654,7.978845608028654,0,1,1,-7.978845608028654,0A7.978845608028654,7.978845608028654,0,1,1,7.978845608028654,0" class="dot symbol symbol-c color color-cvirginica" style="fill: rgb(225, 87, 89); opacity: 0.7;"></path><path transform="translate(317.15873015873024,334.03571428571433)" d="M7.978845608028654,0A7.978845608028654,7.978845608028654,0,1,1,-7.978845608028654,0A7.978845608028654,7.978845608028654,0,1,1,7.978845608028654,0" class="dot symbol symbol-c color color-cvirginica" style="fill: rgb(225, 87, 89); opacity: 0.7;"></path><path d="M305.0410971210058,104.10590177589896L298.725556178858,97.80545241768232L290.705912703629,94.1352171736754L281.1138490194664,93.15546120511308L270.1068665468787,94.88227207791618L257.8656996337592,99.28729560529084L244.5913479023978,106.29820142270212L230.5017758412329,115.79987065045566L215.8283338339823,127.63628614251749L200.81195939273576,141.6130942837452L185.69922097066734,157.50079627086924L170.73826931485502,175.0385164764995L156.17476283786877,193.9382860197162L142.24783391343084,213.88977120713142L129.18616232944893,234.56536920355884L117.20422037222359,255.62558726150274L106.49875119743362,276.72461718269363L97.24553831295948,297.51601347913913L89.59651921854683,317.6583819984598L83.67729059625636,336.82098560643715L79.58504601642078,354.68917488160525L77.38698002190489,370.96955465005914L77.11918479556839,385.3948015260937L78.78605752762607,397.72805335481695L82.36022821389886,407.7667984821674L87.78300907053365,415.34620099069184L94.96535818578384,420.3418073007452L103.78934158574403,422.6715896948269L114.1100697069379,422.2972932104367L125.7580764789499,419.2250637854983L138.54210195260788,413.5053473422348L152.25223278306976,405.23206146651427L166.6633490011346,394.54105328368706L181.5388204769203,381.6078688525487L196.63439238004696,366.64487070390135L211.70219583720666,349.897750853669L226.4948179322044,331.64149654679426L240.76936421920377,312.175874974276L254.29144704281373,291.820511104178L266.8390341769084,270.90963944849176L278.20609458764403,249.7866159416935L288.2059814573332,228.79828004578536L296.6744969200409,208.28925965592416L303.47258818599124,188.59631231991168L308.4886307845418,170.04279568856018L311.6402614348997,152.93335799202117L312.8757304489194,137.54893572425254L312.1747514595452,124.14214067356916L309.54883452240415,112.93311204404827L305.0410971210058,104.10590177589896" class="ellipse color color-csetosa" style="fill: none; stroke: rgb(78, 121, 167); opacity: 0.7;"></path><path d="M472.9486234635759,255.69479263579737L460.95631898313167,248.1765858456839L446.6836717907721,242.7392033339046L430.365038358808,239.47192677097914L412.2683701970385,238.42840474774334L392.69081409637096,239.62577186696765L371.95383298672596,243.04436739365642L350.3979275246214,248.62805808377527L328.37704508179775,256.28515989056297L306.25276793916805,265.8899434140406L284.38837611575406,277.2846983742939L263.14288232082265,290.2823232099007L242.86513697512387,304.66939728039654L223.888100096626,320.209685227298L206.5233741062232,336.64801595215295L191.05608732460738,353.71447251891703L177.7402121731136,371.1288241825959L166.7943949535934,388.6051277703163L158.39836568217797,405.85642286032487L152.68998692738384,422.59944366418193L149.76299011054573,438.5592702431763L149.66543643847655,453.4738426861123L152.3989277397749,467.0982641258117L157.91858016284527,479.20882193890264L166.13376116749822,489.6066611009113L176.90957770875903,498.12104938025726L190.0690911769347,504.61218075678744L205.39622272469106,508.9734710327589L222.63930127575588,511.1333079424123L241.51519595703058,511.0562270234048L261.71396509970083,508.74349394229256L282.9039454728707,504.23308371233077L304.7371981846399,497.59905714479765L326.855221829095,488.9503447725257L348.8948390694792,478.42895821355785L370.49416000002395,466.20765834431677L391.2985243681942,452.4871185707773L410.9663250862328,437.4926297766972L429.1746174100958,421.4704010535293L445.6244216832204,404.6835169539489L460.04563257422063,387.40761765077406L472.2014541989626,369.926372932946L481.89228830243553,352.52682435543346L488.95901165657466,335.49467202484266L493.28558885927833,319.10958341156686L494.8009776324909,303.6406012176416L493.48029533445117,289.34172570302934L489.34522753198326,276.44774400836695L482.4636719240805,265.170374956607L472.9486234635759,255.69479263579737" class="ellipse color color-cversicolor" style="fill: none; stroke: rgb(242, 142, 44); opacity: 0.7;"></path><path d="M592.8390247083684,218.9329415285504L577.1730779545405,210.57227626510547L558.7820663568565,204.31473164862697L537.9679698173045,200.26305638871423L515.0725552256291,198.48377888112438L490.47176465644446,199.0061148133395L464.5695424107744,201.82148744379393L437.7912022617845,206.88366843172898L410.5764438143942,214.109536905277L383.37213264991885,223.38044430387114L356.62496280557525,234.5441625843346L330.77412207073917,247.41738380113847L306.2440805355953,261.7887300178042L283.4376208039777,277.42222412677125L262.7292243141643,294.0611645869806L244.4589223640005,311.43234045608347L228.92671280640047,329.2505175065636L216.38763409288714,347.2231217638611L207.0475775492747,365.0550435629491L201.059906645791,382.4534832408786L198.52293877313215,399.13275889914325L199.47833087362895,414.81899729255673L203.9103954354062,429.2546308203701L211.74635808088743,442.2026267791517L222.85755252007343,453.4503794332236L237.06153324745725,462.81320099496696L254.12507129218505,470.1373541931887L273.7679838313096,475.3025766348577L295.66773478399665,478.2240555102869L319.46473084505396,478.8538202171065L344.76822599706264,477.1815300362431L371.1627375491785,473.2346439262323L398.214868351434,467.07796964788423L425.4804231639503,458.8125996226386L452.51170233050294,448.5742509978013L478.8648529944982,436.5310371747376L504.10715715060593,422.88070739146946L527.8241368624423,407.84739968565304L549.6263599788323,391.67796055420376L569.1558345989574,374.63789174062737L586.0918872894783,357.0069907037483L600.1564285334374,339.07475635115605L611.1185189524464,321.1356354751593L618.7981613248875,303.4841879445868L623.0692561353206,286.410250039891L623.8616721250377,270.1941753494309L621.1623978453985,255.10223137130816L615.0157553054454,241.3822274084028L605.5226722057535,229.25944554647685L592.8390247083684,218.9329415285504" class="ellipse color color-cvirginica" style="fill: none; stroke: rgb(225, 87, 89); opacity: 0.7;"></path></svg></g><defs><marker id="arrow-head-scatterD3-AEZQHPHI-#4e79a7" markerWidth="10" markerHeight="10" refX="10" refY="4" orient="auto"><path d="M0,0 L0,8 L10,4 L0,0" style="fill: rgb(78, 121, 167);"></path></marker><marker id="arrow-head-scatterD3-AEZQHPHI-#f28e2c" markerWidth="10" markerHeight="10" refX="10" refY="4" orient="auto"><path d="M0,0 L0,8 L10,4 L0,0" style="fill: rgb(242, 142, 44);"></path></marker><marker id="arrow-head-scatterD3-AEZQHPHI-#e15759" markerWidth="10" markerHeight="10" refX="10" refY="4" orient="auto"><path d="M0,0 L0,8 L10,4 L0,0" style="fill: rgb(225, 87, 89);"></path></marker><marker id="arrow-head-scatterD3-AEZQHPHI-#76b7b2" markerWidth="10" markerHeight="10" refX="10" refY="4" orient="auto"><path d="M0,0 L0,8 L10,4 L0,0" style="fill: rgb(118, 183, 178);"></path></marker><marker id="arrow-head-scatterD3-AEZQHPHI-#59a14f" markerWidth="10" markerHeight="10" refX="10" refY="4" orient="auto"><path d="M0,0 L0,8 L10,4 L0,0" style="fill: rgb(89, 161, 79);"></path></marker><marker id="arrow-head-scatterD3-AEZQHPHI-#edc949" markerWidth="10" markerHeight="10" refX="10" refY="4" orient="auto"><path d="M0,0 L0,8 L10,4 L0,0" style="fill: rgb(237, 201, 73);"></path></marker><marker id="arrow-head-scatterD3-AEZQHPHI-#af7aa1" markerWidth="10" markerHeight="10" refX="10" refY="4" orient="auto"><path d="M0,0 L0,8 L10,4 L0,0" style="fill: rgb(175, 122, 161);"></path></marker><marker id="arrow-head-scatterD3-AEZQHPHI-#ff9da7" markerWidth="10" markerHeight="10" refX="10" refY="4" orient="auto"><path d="M0,0 L0,8 L10,4 L0,0" style="fill: rgb(255, 157, 167);"></path></marker><marker id="arrow-head-scatterD3-AEZQHPHI-#9c755f" markerWidth="10" markerHeight="10" refX="10" refY="4" orient="auto"><path d="M0,0 L0,8 L10,4 L0,0" style="fill: rgb(156, 117, 95);"></path></marker><marker id="arrow-head-scatterD3-AEZQHPHI-#bab0ab" markerWidth="10" markerHeight="10" refX="10" refY="4" orient="auto"><path d="M0,0 L0,8 L10,4 L0,0" style="fill: rgb(186, 176, 171);"></path></marker></defs><g class="legend" style="font-size: 16px;"><g class="color-legend-label" transform="translate(743, 50)"><text style="fill: rgb(0, 0, 0); font-weight: bold;">Species</text></g><g class="color-legend" transform="translate(743, 62)"><g class="legendCells"><g class="cell" transform="translate(0, 0)"><rect class="swatch" height="15" width="15" style="fill: rgb(78, 121, 167);"></rect><text class="label" transform="translate( 25, 12.5)">setosa</text></g><g class="cell" transform="translate(0, 21.5)"><rect class="swatch" height="15" width="15" style="fill: rgb(242, 142, 44);"></rect><text class="label" transform="translate( 25, 12.5)">versicolor</text></g><g class="cell" transform="translate(0, 43)"><rect class="swatch" height="15" width="15" style="fill: rgb(225, 87, 89);"></rect><text class="label" transform="translate( 25, 12.5)">virginica</text></g></g></g></g></svg>